<?xml version="1.0" encoding="UTF-8" standalone="no"?>
<svg
   enable-background="new 0 0 227.27 227.2705"
   height="227.2705"
   viewBox="0 0 227.27 227.2705"
   width="227.27"
   version="1.1"
   id="svg13"
   sodipodi:docname="roblox-hx-logo.svg"
   inkscape:version="1.4.2 (ebf0e940d0, 2025-05-08)"
   inkscape:export-filename="roblox-hx-logo-64x64.png"
   inkscape:export-xdpi="27.030001"
   inkscape:export-ydpi="27.030001"
   xmlns:inkscape="http://www.inkscape.org/namespaces/inkscape"
   xmlns:sodipodi="http://sodipodi.sourceforge.net/DTD/sodipodi-0.dtd"
   xmlns="http://www.w3.org/2000/svg"
   xmlns:svg="http://www.w3.org/2000/svg">
  <defs
     id="defs13" />
  <sodipodi:namedview
     id="namedview13"
     pagecolor="#ffffff"
     bordercolor="#000000"
     borderopacity="0.25"
     inkscape:showpageshadow="2"
     inkscape:pageopacity="0.0"
     inkscape:pagecheckerboard="0"
     inkscape:deskcolor="#d1d1d1"
     inkscape:zoom="2.8284271"
     inkscape:cx="122.32947"
     inkscape:cy="136.64838"
     inkscape:window-width="1920"
     inkscape:window-height="1008"
     inkscape:window-x="1920"
     inkscape:window-y="0"
     inkscape:window-maximized="1"
     inkscape:current-layer="g13" />
  <g
     transform="matrix(.24008588 0 0 .24008588 -2.289055 -240.92061)"
     id="g13">
    <path
       d="m482.8347 1207.9542-200.813-18.3507-157.6319-71.2595h179.2184l179.2266 89.5228"
       fill="#fbc712"
       id="path1"
       style="fill:#04e0fa;fill-opacity:1" />
    <path
       d="m482.8347 1207.9542 212.8266-24.6514 145.6346-64.9589h-179.2407l-179.2204 89.5228"
       fill="#fbc712"
       id="path2"
       style="fill:#04e0fa;fill-opacity:1" />
    <path
       d="m482.8347 1745.6257 179.2204 21.3342 179.2408 68.2698h-179.2407l-179.2204-89.7058"
       fill="#f6871f"
       id="path3"
       style="fill:#0cb8ec;fill-opacity:1" />
    <path
       d="m482.8347 1745.6257-179.2266 19.2639-179.2184 70.3401h179.2184l179.2266-89.7058"
       fill="#f15e22"
       id="path4"
       style="fill:#129ee2;fill-opacity:1" />
    <path
       d="m213.998 1476.7889-26.4513 210.4268-63.1569 148.014v-179.2122l89.6082-179.3303"
       fill="#fcee23"
       id="path5"
       style="fill:#01edff;fill-opacity:1" />
    <path
       d="m213.998 1476.7889-20.1507-192.7104-69.4575-165.7345v179.2205l89.6082 179.1228"
       fill="#fcee23"
       id="path6"
       style="fill:#01edff;fill-opacity:1" />
    <path
       d="m751.6715 1476.7889 25.8615-194.8114 63.7487-163.6335v179.2205l-89.6102 179.1228"
       fill="#f04923"
       id="path7"
       style="fill:#1591dd;fill-opacity:1" />
    <path
       d="m751.6715 1476.7889 17.4824 197.8254 72.1279 160.6154v-179.2122l-89.6102-179.3303"
       fill="#f04923"
       id="path8"
       style="fill:#1591dd;fill-opacity:1" />
    <path
       id="path9"
       d="M 124.3858 1118.3445 L 124.3858 1118.5235 L 213.99403 1476.6392 L 214.14046 1476.6392 L 482.83501 1207.9528 L 124.3858 1118.3445 z "
       style="fill:#07d3f5;fill-opacity:1" />
    <path
       id="path10"
       d="M 213.99403 1476.7856 L 124.48342 1834.8362 L 482.6723 1745.4639 L 213.99403 1476.7856 z M 124.48342 1834.8362 L 124.39393 1834.8606 L 124.3858 1835.2267 L 124.48342 1834.8362 z "
       style="fill:#0ac6f0;fill-opacity:1" />
    <path
       id="path11"
       d="M 841.29235 1118.3445 L 841.24354 1118.5317 L 841.29235 1118.5235 L 841.29235 1118.3445 z M 841.24354 1118.5317 L 482.89195 1207.9202 L 751.66785 1476.7775 L 841.24354 1118.5317 z "
       style="fill:#0fabe7;fill-opacity:1" />
    <path
       id="path12"
       d="M 751.65971 1476.7856 L 482.83501 1745.6266 L 841.29235 1835.2267 L 841.29235 1834.8606 L 751.66785 1476.7856 L 751.65971 1476.7856 z "
       style="fill:#129ee2;fill-opacity:1" />
    <path
       id="path13"
       d="M 482.83501 1207.8633 L 482.83501 1207.9528 L 213.99403 1476.7856 L 482.83501 1745.6266 L 751.66785 1476.7775 L 482.83501 1207.8633 z M 411.33553 1352.8879 L 606.69205 1405.2617 L 554.35076 1600.602 L 359.01864 1548.2607 L 411.35993 1352.9286 L 411.33553 1352.8879 z "
       style="fill:#0cb8ec;fill-opacity:1" />
    <path
       d="m 411.35669,1352.9278 -52.34105,195.3366 195.33757,52.3406 52.3373,-195.3433 -195.35702,-52.3742"
       fill="#f6871f"
       id="path14"
       style="display:none;fill:#ff0000;fill-opacity:1;stroke-width:0.531911" />
    <path
       style="display:none;fill:#ff0000;fill-opacity:1"
       d="M 482.83501,1207.8633 751.66785,1476.778 482.83501,1745.6271 213.99403,1476.7861 482.83501,1207.9533 Z"
       id="path16" />
  </g>
</svg>
